#!OML:ASF E:\Steps\Project 1\Capture day 1\Session 2\Subject.ASF
:FULLY-SPECIFIED
:DEGREES
421
root 12.3009 18.8299 16.5048 -153.098 0.62341 177.589
lowerback -31.4583 -3.36628 -5.06421
upperback -2.96773 -1.42933 -0.342557
thorax 13.1891 -0.42326 1.90661
lowerneck -5.1007 -1.31186 2.3162
upperneck 2.32671 -1.90021 0.306556
head 1.56319 -0.912415 -0.348749
rclavicle -4.72114e-015 -7.95139e-016
rhumerus -36.3696 -16.6113 -80.3277
rradius 32.7966
rwrist -4.57878
rhand -8.65215 -50.9234
rfingers 7.12502
rthumb 17.2813 -80.175
lclavicle -4.72114e-015 -7.95139e-016
lhumerus -27.3305 7.00541 82.5021
lradius 19.24
lwrist -6.32243
lhand -21.7256 -13.4595
lfingers 7.12502
lthumb 4.67373 16.469
rfemur -22.5165 7.09072 19.8085
rtibia 6.34528
rfoot -18.176 -4.50967
rtoes -30.1494
lfemur -23.8142 -8.48141 -20.992
ltibia 6.25494
lfoot -3.9236 -10.5851
ltoes -12.4268
422
root 12.2938 18.8327 16.494 -153.311 0.63867 177.628
lowerback -32.0475 -3.17111 -4.70046
upperback -2.45659 -1.27689 -0.630047
thorax 14.0043 -0.379359 1.44329
lowerneck -5.37023 -1.28239 2.49196
upperneck 1.97504 -1.8738 0.481509
head 1.49798 -0.893311 -0.323092
rclavicle 6.31141e-015 2.82274e-014
rhumerus -35.7412 -17.1561 -80.7183
rradius 32.5691
rwrist -4.20552
rhand -8.88091 -50.9552
rfingers 7.12502
rthumb 17.0611 -80.226
lclavicle 6.31141e-015 2.82274e-014
lhumerus -26.7373 6.47941 82.38
lradius 19.0038
lwrist -5.71995
lhand -22.2308 -13.8504
lfingers 7.12502
lthumb 4.18595 16.0883
rfemur -22.2389 6.97646 19.8093
rtibia 6.3064
rfoot -18.2412 -4.41362
rtoes -30.2001
lfemur -23.4319 -8.92746 -20.9147
ltibia 6.01792
lfoot -3.95696 -10.0691
ltoes -12.7501
423
root 12.3008 18.832 16.5025 -153.19 0.596697 177.596
lowerback -32.2107 -3.17918 -4.76593
upperback -2.38862 -1.24361 -0.684859
thorax 14.1504 -0.370448 1.42926
lowerneck -5.48422 -1.26205 2.37115
upperneck 1.6806 -1.83787 0.683509
head 1.42644 -0.872345 -0.237873
rclavicle 8.94531e-016 8.34896e-015
rhumerus -35.6041 -17.4687 -80.7293
rradius 32.4291
rwrist -3.88616
rhand -8.94012 -50.7294
rfingers 7.12502
rthumb 17.0041 -80.0052
lclavicle 8.94531e-016 8.34896e-015
lhumerus -26.5703 6.34231 82.3061
lradius 18.8473
lwrist -6.031
lhand -22.3737 -13.6298
lfingers 7.12502
lthumb 4.04794 16.3115
rfemur -22.4282 6.936 19.8472
rtibia 6.36624
rfoot -18.2381 -4.38069
rtoes -29.9149
lfemur -23.66 -8.54114 -21
ltibia 6.1521
lfoot -3.78194 -10.4881
ltoes -11.8452
424
root 12.3009 18.8312 16.4976 -153.278 0.604854 177.57
lowerback -32.2779 -3.10883 -4.76446
upperback -2.28846 -1.14541 -0.772389
thorax 14.2876 -0.334076 1.37101
lowerneck -5.5378 -1.23834 2.26235
upperneck 1.4255 -1.79577 0.858767
head 1.35679 -0.848675 -0.162835
rclavicle -9.69075e-015 -1.63003e-014
rhumerus -35.6327 -17.5786 -80.7606
rradius 32.4065
rwrist -3.90596
rhand -8.84721 -50.3718
rfingers 7.12502
rthumb 17.0935 -79.6398
lclavicle -9.69075e-015 -1.63003e-014
lhumerus -26.4932 6.44803 82.1327
lradius 18.8561
lwrist -6.18967
lhand -21.8501 -13.2418
lfingers 7.12502
lthumb 4.55352 16.6893
rfemur -22.2954 6.85434 19.8036
rtibia 6.27759
rfoot -18.2127 -4.22218
rtoes -29.1974
lfemur -23.5063 -8.65691 -21.0255
ltibia 6.08531
lfoot -3.9364 -10.2463
ltoes -13.1214
425
root 12.3064 18.8304 16.5035 -153.179 0.553584 177.533
lowerback -32.2568 -1.93152 -5.63206
upperback -2.32882 -1.40522 -0.850111
thorax 14.1918 -1.37015 1.42957
lowerneck -5.57714 -1.29257 2.33285
upperneck 1.43697 -1.87351 0.88049
head 1.36636 -0.885685 -0.170455
rclavicle -3.77691e-015 1.74931e-014
rhumerus -35.8212 -17.5946 -80.73
rradius 32.3698
rwrist -3.97155
rhand -8.97239 -50.6034
rfingers 7.12502
rthumb 16.973 -79.8818
lclavicle -3.77691e-015 1.74931e-014
lhumerus -26.6103 6.39361 82.0771
lradius 18.9063
lwrist -5.90821
lhand -21.8417 -13.1575
lfingers 7.12502
lthumb 4.56164 16.7734
rfemur -22.4294 6.8731 19.7908
rtibia 6.31467
rfoot -18.202 -4.23646
rtoes -29.0309
lfemur -23.6824 -8.48657 -21.0639
ltibia 6.17781
lfoot -3.90945 -10.3845
ltoes -13.2568
426
root 12.3058 18.8304 16.5014 -153.268 0.53491 177.558
lowerback -32.1107 -1.8807 -5.66656
upperback -2.37224 -1.34103 -0.829239
thorax 14.0756 -1.34149 1.50236
lowerneck -5.62547 -1.36127 2.38933
upperneck 1.52245 -1.97135 0.824608
head 1.40043 -0.934588 -0.201026
rclavicle 7.85199e-015 -6.75868e-015
rhumerus -35.9573 -17.6828 -80.5492
rradius 32.1395
rwrist -3.83586
rhand -9.07193 -50.9599
rfingers 7.12502
rthumb 16.8772 -80.2465
lclavicle 7.85199e-015 -6.75868e-015
lhumerus -26.7897 6.25873 82.1326
lradius 18.8307
lwrist -5.74138
lhand -22.2383 -13.2052
lfingers 7.12502
lthumb 4.1787 16.7336
rfemur -22.3281 6.76779 19.8325
rtibia 6.3218
rfoot -18.1733 -4.14067
rtoes -29.2842
lfemur -23.5879 -8.79096 -20.9765
ltibia 6.18668
lfoot -3.93362 -10.2054
ltoes -12.0825
427
root 12.3113 18.828 16.5081 -153.161 0.525797 177.498
lowerback -30.6654 -1.89033 -6.35031
upperback -3.45476 -1.4583 -0.444642
thorax 12.2327 -1.44245 2.28702
lowerneck -5.16632 -1.43133 2.05343
upperneck 2.16753 -2.04682 0.507147
head 1.52616 -0.984121 -0.245561
rclavicle 7.67806e-015 1.31198e-014
rhumerus -37.6429 -16.9702 -79.5235
rradius 32.2469
rwrist -4.2132
rhand -8.92614 -50.6557
rfingers 7.12502
rthumb 17.0175 -79.9303
lclavicle 7.67806e-015 1.31198e-014
lhumerus -28.3923 6.64615 82.3618
lradius 18.7566
lwrist -6.45544
lhand -22.227 -13.5436
lfingers 7.12502
lthumb 4.18955 16.395
rfemur -22.4941 6.77112 19.7928
rtibia 6.39347
rfoot -18.1754 -4.20856
rtoes -29.3496
lfemur -23.7834 -8.71506 -21.0281
ltibia 6.30251
lfoot -3.86388 -10.3889
ltoes -10.7796
428
root 12.3106 18.8291 16.5094 -153.192 0.537927 177.422
lowerback -30.5087 -1.87245 -6.49045
upperback -3.54455 -1.41473 -0.449859
thorax 12.0596 -1.42817 2.37842
lowerneck -5.18582 -1.44441 2.09231
upperneck 2.29012 -2.06572 0.348857
head 1.56705 -0.996541 -0.303093
rclavicle 6.41081e-015 -7.15625e-015
rhumerus -37.9168 -16.8276 -79.396
rradius 32.1503
rwrist -4.36396
rhand -8.71969 -50.1206
rfingers 7.12502
rthumb 17.2162 -79.3779
lclavicle 6.41081e-015 -7.15625e-015
lhumerus -28.5312 7.05989 82.1529
lradius 18.5228
lwrist -7.20402
lhand -21.8906 -13.83
lfingers 7.12502
lthumb 4.51437 16.1019
rfemur -22.4583 6.7698 19.6676
rtibia 6.37707
rfoot -18.242 -4.2525
rtoes -29.5475
lfemur -23.7215 -8.94831 -21.0777
ltibia 6.23813
lfoot -3.97669 -10.1506
ltoes -11.5757
429
root 12.3134 18.8287 16.5175 -153.069 0.555761 177.389
lowerback -30.6742 -1.83496 -6.45815
upperback -3.50641 -1.35371 -0.555987
thorax 12.1647 -1.40237 2.26468
lowerneck -5.19963 -1.43933 2.11614
upperneck 2.12747 -2.05957 0.44411
head 1.51788 -0.991489 -0.27612
rclavicle -4.34841e-015 9.14409e-015
rhumerus -37.7879 -17.2388 -79.3344
rradius 31.6897
rwrist -4.00653
rhand -8.54744 -49.8938
rfingers 7.12502
rthumb 17.382 -79.1366
lclavicle -4.34841e-015 9.14409e-015
lhumerus -28.4439 6.95962 81.9753
lradius 18.4586
lwrist -7.2307
lhand -21.5743 -13.5422
lfingers 7.12502
lthumb 4.81982 16.383
rfemur -22.6623 6.67734 19.663
rtibia 6.43396
rfoot -18.2497 -4.1666
rtoes -29.974
lfemur -23.9526 -8.86199 -21.1078
ltibia 6.37444
lfoot -3.97949 -10.2486
ltoes -11.4255
430
root 12.3129 18.8298 16.516 -153.151 0.597814 177.435
lowerback -32.0976 -1.73726 -5.83623
upperback -2.45578 -1.09522 -1.01584
thorax 13.9503 -1.24426 1.49108
lowerneck -5.64401 -1.37393 2.40258
upperneck 1.39968 -1.98626 0.911905
head 1.36491 -0.939811 -0.175861
rclavicle -3.03147e-015 2.5842e-014
rhumerus -36.1754 -18.4202 -80.1296
rradius 30.9773
rwrist -3.29069
rhand -8.50881 -49.913
rfingers 7.12502
rthumb 17.4192 -79.1525
lclavicle -3.03147e-015 2.5842e-014
lhumerus -26.9435 6.50761 81.5613
lradius 18.243
lwrist -6.81402
lhand -21.7379 -13.3238
lfingers 7.12502
lthumb 4.66183 16.6049
rfemur -22.6192 6.50636 19.742
rtibia 6.46634
rfoot -18.2144 -4.00822
rtoes -30.3519
lfemur -23.8856 -9.00243 -21.0363
ltibia 6.42254
lfoot -4.07521 -10.0383
ltoes -11.8242
431
root 12.3177 18.829 16.521 -153.121 0.541674 177.451
lowerback -31.4822 -1.79011 -6.22789
upperback -2.89712 -1.18119 -0.723752
thorax 13.1896 -1.30879 2.00223
lowerneck -5.3477 -1.41709 1.97887
upperneck 1.36737 -2.01258 0.864003
head 1.30606 -0.961377 -0.117547
rclavicle 1.26477e-014 6.75868e-015
rhumerus -36.8594 -18.1453 -79.4674
rradius 30.8751
rwrist -3.37043
rhand -8.69657 -49.7987
rfingers 7.12502
rthumb 17.2385 -79.0541
lclavicle 1.26477e-014 6.75868e-015
lhumerus -27.633 7.0222 81.6813
lradius 18.0578
lwrist -7.3618
lhand -21.7341 -13.5376
lfingers 7.12502
lthumb 4.66551 16.391
rfemur -22.6958 6.47069 19.8164
rtibia 6.51659
rfoot -18.2053 -4.03211
rtoes -30.246
lfemur -24.0136 -8.78118 -21.0438
ltibia 6.57688
lfoot -4.09902 -10.2545
ltoes -12.6989
432
root 12.3185 18.8287 16.5209 -153.17 0.508767 177.51
lowerback -32.0367 -1.70649 -5.78608
upperback -2.47505 -1.07763 -1.01219
thorax 13.9011 -1.232 1.4775
lowerneck -5.57059 -1.31782 2.02005
upperneck 0.891338 -1.87258 1.1707
head 1.19652 -0.882776 -0.0249785
rclavicle 8.10048e-015 -3.1408e-014
rhumerus -36.3135 -18.5661 -79.9446
rradius 30.5884
rwrist -3.16353
rhand -8.95952 -49.8547
rfingers 7.12502
rthumb 16.9854 -79.132
lclavicle 8.10048e-015 -3.1408e-014
lhumerus -27.1079 7.10437 81.1564
lradius 17.9163
lwrist -7.57466
lhand -21.4807 -13.3864
lfingers 7.12502
lthumb 4.91024 16.5367
rfemur -22.6372 6.43209 19.8974
rtibia 6.50307
rfoot -18.2343 -3.97176
rtoes -29.5456
lfemur -23.9892 -8.76596 -20.9838
ltibia 6.63609
lfoot -4.1909 -10.2048
ltoes -13.5435
433
root 12.3184 18.8289 16.5214 -153.179 0.539128 177.532
lowerback -32.0544 -1.69823 -5.89318
upperback -2.46876 -1.03789 -0.903775
thorax 13.9157 -1.22127 1.66873
lowerneck -5.44595 -1.28701 1.69659
upperneck 0.591154 -1.80099 1.21709
head 1.08337 -0.850603 0.0474866
rclavicle -1.4561e-014 -2.50469e-014
rhumerus -36.4078 -18.4228 -79.6912
rradius 30.4464
rwrist -3.28331
rhand -8.90342 -49.9657
rfingers 7.12502
rthumb 17.0394 -79.2384
lclavicle -1.4561e-014 -2.50469e-014
lhumerus -27.1699 7.32789 81.2456
lradius 17.7257
lwrist -7.80274
lhand -21.8937 -13.4257
lfingers 7.12502
lthumb 4.51146 16.5063
rfemur -22.6441 6.36506 19.9215
rtibia 6.50664
rfoot -18.2413 -3.90247
rtoes -29.8994
lfemur -24.0045 -8.75213 -20.9779
ltibia 6.66757
lfoot -4.27473 -10.1312
ltoes -14.5105
434
root 12.3199 18.8291 16.5228 -153.235 0.589658 177.489
lowerback -32.0031 -1.68727 -5.99764
upperback -2.47083 -0.991394 -0.875953
thorax 13.8885 -1.20549 1.77546
lowerneck -5.35829 -1.30717 1.56913
upperneck 0.556874 -1.81892 1.21356
head 1.05854 -0.861579 0.0679262
rclavicle -4.17448e-015 -1.86858e-014
rhumerus -36.5082 -18.3985 -79.5108
rradius 30.228
rwrist -3.23117
rhand -8.90663 -49.8214
rfingers 7.12502
rthumb 17.0363 -79.0944
lclavicle -4.17448e-015 -1.86858e-014
lhumerus -27.2403 7.44443 81.2256
lradius 17.5263
lwrist -7.90327
lhand -22.1811 -13.7809
lfingers 7.12502
lthumb 4.23391 16.1567
rfemur -22.5936 6.39597 19.8601
rtibia 6.51173
rfoot -18.2534 -3.91115
rtoes -30.4889
lfemur -23.9559 -8.80541 -21.0327
ltibia 6.67223
lfoot -4.30689 -10.0472
ltoes -14.2661
435
root 12.3209 18.8293 16.5225 -153.356 0.607079 177.462
lowerback -31.95 -2.85082 -5.28145
upperback -2.45955 -0.614447 -0.846064
thorax 13.9217 -0.106423 1.79381
lowerneck -5.35078 -1.32009 1.47497
upperneck 0.540543 -1.83106 1.33779
head 1.05424 -0.865494 0.121582
rclavicle -2.5842e-015 -9.54166e-015
rhumerus -36.5679 -18.4665 -79.4022
rradius 30.0034
rwrist -3.07235
rhand -9.09377 -49.8803
rfingers 7.12502
rthumb 16.8562 -79.1688
lclavicle -2.5842e-015 -9.54166e-015
lhumerus -27.3057 7.50597 81.1337
lradius 17.417
lwrist -7.93643
lhand -21.9116 -13.7902
lfingers 7.12502
lthumb 4.49412 16.1421
rfemur -22.4537 6.53995 19.7937
rtibia 6.51154
rfoot -18.3034 -3.97561
rtoes -29.7245
lfemur -23.8212 -8.90817 -21.0601
ltibia 6.66537
lfoot -4.27238 -9.96615
ltoes -12.9408
